Coordinates
version=1
nRows=13
nColumns=34
inDegrees=yes

Units are S.I. units (second, meters, Newtons, ...)
If the header above contains a line with 'inDegrees', this indicates whether rotational values are in degrees (yes) or radians (no).

endheader
time	pelvis_tilt	pelvis_list	pelvis_rotation	pelvis_tx	pelvis_ty	pelvis_tz	hip_flexion_r	hip_adduction_r	hip_rotation_r	knee_angle_r	ankle_angle_r	subtalar_angle_r	mtp_angle_r	hip_flexion_l	hip_adduction_l	hip_rotation_l	knee_angle_l	ankle_angle_l	subtalar_angle_l	mtp_angle_l	lumbar_extension	lumbar_bending	lumbar_rotation	arm_flex_r	arm_add_r	arm_rot_r	elbow_flex_r	pro_sup_r	arm_flex_l	arm_add_l	arm_rot_l	elbow_flex_l	pro_sup_l
      8.73333330	    -22.30289250	      1.93069586	     -3.74832941	      0.63246827	      0.58825095	     -0.11128701	     85.36671982	      3.61624025	     -1.56278247	    105.23532015	     43.39202502	     -8.43440596	      0.00000000	     87.08992891	     -3.29419586	     -6.09853032	    106.41287805	     31.63817021	    -18.02654711	      0.00000000	    -37.68381924	     -2.11410535	      4.51514918	     22.84638151	    -15.45721186	     17.14804597	     44.38231801	     79.95776605	      9.15040690	    -18.35212364	     17.86584472	     61.21821869	     81.18321262
      8.75000000	    -21.46901158	      2.03825412	     -3.87234558	      0.64160759	      0.60036110	     -0.11224527	     82.56846396	      3.64409860	     -1.27636488	    103.65049435	     43.41513455	     -8.77245907	      0.00000000	     84.10419495	     -2.59722829	     -5.93754624	    104.82450810	     31.68563048	    -17.94087539	      0.00000000	    -37.43619624	     -2.24319163	      4.23645189	     21.36529930	    -14.89157537	     17.07833163	     42.58043550	     80.11398896	      8.97424955	    -17.86187117	     17.61358263	     59.26077660	     80.90436007
      8.76666670	    -20.62426967	      2.11109064	     -3.88622720	      0.64915192	      0.60786008	     -0.11360311	     79.71415025	      3.59555010	     -1.12112143	    102.20756469	     43.75377179	     -9.23323564	      0.00000000	     81.43752917	     -1.91618175	     -5.61841663	    103.56775099	     31.37402892	    -17.99874293	      0.00000000	    -36.65765213	     -2.30653112	      3.93394704	     19.83529713	    -14.31822944	     17.55320917	     40.17092045	     80.43677535	      8.90868412	    -17.72938740	     18.47152631	     56.93954811	     80.40767696
      8.78333330	    -19.05875674	      2.12970498	     -4.08268506	      0.65281710	      0.62769704	     -0.11633499	     75.80094968	      3.70624086	     -0.91414248	     99.75764212	     43.20258717	     -9.97495488	      0.00000000	     77.42038045	     -1.21218044	     -5.41862275	    101.06705017	     30.89337967	    -18.06060615	      0.00000000	    -36.87975382	     -2.58608623	      3.49120776	     18.57096849	    -13.98660650	     18.11993476	     39.06892113	     80.52797145	      8.75820305	    -17.75260625	     18.98943873	     55.63036137	     80.18689707
      8.80000000	    -17.49246712	      2.19384547	     -4.09277106	      0.66420438	      0.64276299	     -0.11741656	     71.62920828	      3.47083336	     -0.81124793	     97.32351288	     42.79337611	    -10.62994689	      0.00000000	     73.28152293	     -0.37094034	     -5.01985924	     98.54972641	     30.37648078	    -17.78538951	      0.00000000	    -36.52412408	     -2.62321806	      2.88592946	     17.11587647	    -13.67753552	     19.02318452	     37.63904998	     80.57596300	      8.36372200	    -18.12504637	     20.45780662	     53.96382003	     80.00839284
      8.81666670	    -16.02546577	      2.05795439	     -4.04042711	      0.67010491	      0.65956080	     -0.11547911	     67.48821424	      3.47640319	     -1.09778334	     94.44102291	     42.27094137	    -11.68709054	      0.00000000	     69.29157726	      0.03013694	     -4.47749827	     96.08694147	     29.93145195	    -17.23755752	      0.00000000	    -35.91783011	     -2.69020120	      2.95802231	     15.37894298	    -13.86991297	     21.20751030	     36.39143482	     80.25485264	      8.81296010	    -18.93774330	     24.71847914	     52.02843261	     79.03234487
      8.83333330	    -14.58979505	      1.98483706	     -3.89819825	      0.67514597	      0.67730396	     -0.11817079	     63.44465283	      3.13761892	     -1.39289833	     91.40720864	     41.32098374	    -12.67804926	      0.00000000	     65.36680083	      0.64973180	     -3.95917747	     93.25637727	     28.70461823	    -16.84229640	      0.00000000	    -35.15880572	     -2.55657717	      2.22220378	     13.73197718	    -13.64748572	     21.56749793	     36.03813385	     80.10754373	      7.75246092	    -19.14936286	     25.42785840	     50.91286012	     78.77875563
      8.85000000	    -12.70801454	      1.64134970	     -4.20889104	      0.68789389	      0.70121483	     -0.12057212	     58.12351200	      3.11949076	     -1.63333392	     87.21542547	     40.04124109	    -13.07685915	      0.00000000	     60.22127379	      0.68128871	     -3.65240117	     89.71942900	     27.52800872	    -16.89106307	      0.00000000	    -34.51391272	     -2.49580372	      2.67111471	     11.80846041	    -13.90325293	     22.25577472	     35.34581219	     79.88029423	      6.31606305	    -18.50781803	     25.97742116	     49.87364670	     78.29147979
      8.86666670	    -11.18244484	      1.26763965	     -4.37817948	      0.69176767	      0.72006768	     -0.12127737	     53.44390723	      2.96907526	     -1.97526451	     82.85532348	     38.60340563	    -13.49401663	      0.00000000	     55.81474120	      0.77200280	     -3.39913836	     86.01246795	     26.45022789	    -16.30569657	      0.00000000	    -33.35861509	     -2.29566435	      2.81878144	      9.88053266	    -14.30478733	     23.00629036	     35.50562543	     79.61399757	      4.16395960	    -18.14412636	     26.34916279	     49.69555743	     77.74787182
      8.88333330	    -10.10708965	      0.88105651	     -4.47325648	      0.69547720	      0.74085654	     -0.11539796	     49.20951349	      3.03464107	     -2.41810263	     78.21547954	     36.89157979	    -13.86035775	      0.00000000	     51.90364555	      0.38264985	     -3.06803455	     81.86374405	     24.83869271	    -15.78695467	      0.00000000	    -31.39156779	     -2.22690324	      3.07140282	      7.64525261	    -14.49462252	     23.81865750	     36.08717707	     79.28455123	      1.66154941	    -18.41184233	     26.35498247	     50.77954587	     77.13648184
      8.90000000	     -9.24196149	      0.55122552	     -4.51272036	      0.70670120	      0.76348190	     -0.11575763	     44.90461377	      2.91018208	     -2.79938619	     73.24443726	     34.13811275	    -14.07821644	      0.00000000	     47.92406656	      0.04508051	     -2.92313928	     77.14066430	     23.44152624	    -14.25675387	      0.00000000	    -28.83569261	     -1.95924701	      2.52367345	      5.53062115	    -14.52170826	     24.57198375	     37.06371087	     78.89271357	     -0.92318960	    -19.56508722	     26.67305131	     52.86512845	     76.55239689
      8.91666670	     -8.64134737	      0.05445042	     -4.54923464	      0.70960691	      0.79110547	     -0.11237998	     40.72817259	      3.16732067	     -3.30740920	     67.34308008	     30.86177283	    -14.06614740	      0.00000000	     43.93353107	     -0.66505957	     -2.90182898	     71.58829235	     21.28642863	    -13.26100279	      0.00000000	    -26.05030881	     -1.87970877	      2.18583499	      3.36033759	    -14.62307387	     25.47119772	     38.52341085	     78.53412004	     -3.52529821	    -20.82134683	     26.77075823	     55.89473943	     75.97125344
      8.93333330	     -7.96165757	     -0.31645505	     -4.36395908	      0.72378216	      0.81714541	     -0.10862039	     35.90985309	      3.17884556	     -3.98417967	     60.96735421	     26.94706728	    -13.10702970	      0.00000000	     39.15285478	     -1.37484883	     -3.27585882	     65.29461603	     18.78319585	    -11.88502754	      0.00000000	    -22.88099706	     -1.90167078	      1.80836662	      0.70488229	    -14.80703381	     26.23746020	     40.64965066	     78.16359486	     -6.96024387	    -21.74284996	     25.84416905	     59.48812743	     75.31364585
